<svg width="623.4px" height="132.8px" xmlns="http://www.w3.org/2000/svg" viewBox="-61.677978515625 8.599999999999994 623.35595703125 132.8" style="background: rgba(0, 0, 0, 0)" preserveAspectRatio="xMidYMid"><defs><linearGradient id="editing-outline-gradient" x1="-0.41354545764260087" x2="1.4135454576426008" y1="0.09326335692419985" y2="0.9067366430758002"><stop offset="0" stop-color="#694b41"></stop><stop offset="1" stop-color="#4b497f"></stop></linearGradient><filter id="editing-outline" x="-100%" y="-100%" width="300%" height="300%"><feMorphology in="SourceGraphic" operator="dilate" radius="1" result="outline"></feMorphology><feComposite operator="out" in="outline" in2="SourceAlpha"></feComposite></filter></defs><g filter="url(#editing-outline)"><g transform="matrix(1.4,0,0,1,-156.7,110)"><path d="M 74.9 -9.6 L 74.9 -9.6 L 74.9 -39.8 L 74.9 -39.8 Q 74.9 -40.8 74.6 -42.6 L 74.6 -42.6 L 74.6 -42.6 Q 74.3 -44.4 74.2 -45.4 L 74.2 -45.4 L 68.8 -46 L 69.1 -49.7 L 71.4 -49.5 L 71.4 -49.5 Q 74 -49.4 77.1 -49.4 L 77.1 -49.4 L 77.1 -49.4 Q 80.2 -49.4 83.1 -49.6 L 83.1 -49.6 L 86.8 -49.9 L 87.2 -45.8 L 81.7 -45.4 L 81.5 -42.8 L 81.5 -42.8 Q 81.3 -41.4 81.3 -37.7 L 81.3 -37.7 L 81.3 -11.7 L 81.3 -11.7 Q 81.3 -8 81.5 -6.5 L 81.5 -6.5 L 81.7 -4 L 87.2 -3.6 L 86.8 0.3 L 83.1 0.1 L 83.1 0.1 Q 78.7 0 76.4 0 L 76.4 0 L 76.4 0 Q 74 0 71.4 0.1 L 71.4 0.1 L 69.1 0.3 L 68.8 -3.4 L 74.2 -4 L 74.2 -4 Q 74.3 -4.6 74.6 -6.4 L 74.6 -6.4 L 74.6 -6.4 Q 74.9 -8.2 74.9 -9.6 Z M 118.6 -9.6 L 118.6 -9.6 L 118.6 -21.8 L 118.6 -21.8 Q 118.6 -30.7 111.9 -30.7 L 111.9 -30.7 L 111.9 -30.7 Q 108.4 -30.7 106 -27.1 L 106 -27.1 L 106 -27.1 Q 103.5 -23.5 103.5 -19.2 L 103.5 -19.2 L 103.5 -11.7 L 103.5 -11.7 Q 103.5 -8 103.7 -6.5 L 103.7 -6.5 L 104 -4 L 109.3 -3.6 L 108.8 0.3 L 105.8 0.1 L 105.8 0.1 Q 102 0 99.5 0 L 99.5 0 L 99.5 0 Q 96.9 0 94.7 0.1 L 94.7 0.1 L 92.9 0.3 L 92.5 -3.3 L 97.1 -4 L 97.1 -4 Q 97.2 -4.6 97.5 -6.4 L 97.5 -6.4 L 97.5 -6.4 Q 97.8 -8.2 97.8 -9.6 L 97.8 -9.6 L 97.8 -25 L 97.8 -25 Q 97.8 -25.4 97.5 -27.4 L 97.5 -27.4 L 97.5 -27.4 Q 97.1 -29.3 96.9 -31 L 96.9 -31 L 91.8 -31.9 L 92.2 -35.4 L 94.3 -35.2 L 94.3 -35.2 Q 95.7 -35 97.9 -35 L 97.9 -35 L 97.9 -35 Q 100.1 -35 100.6 -35.1 L 100.6 -35.1 L 101.4 -35.2 L 101.8 -34.8 L 102.7 -29.3 L 102.7 -29.3 Q 106.2 -35.2 113.6 -35.2 L 113.6 -35.2 L 113.6 -35.2 Q 120.9 -35.2 123 -28.5 L 123 -28.5 L 123 -28.5 Q 124.3 -31.2 127 -33.2 L 127 -33.2 L 127 -33.2 Q 129.8 -35.2 134 -35.2 L 134 -35.2 L 134 -35.2 Q 140.5 -35.2 142.7 -31.3 L 142.7 -31.3 L 142.7 -31.3 Q 145 -27.3 145 -19.4 L 145 -19.4 L 145 -11.7 L 145 -11.7 Q 145 -8 145.2 -6.5 L 145.2 -6.5 L 145.4 -4 L 151 -3.6 L 150.6 0.3 L 147.5 0.1 L 147.5 0.1 Q 143.7 0 141.1 0 L 141.1 0 L 141.1 0 Q 138.5 0 136.4 0.1 L 136.4 0.1 L 134.6 0.3 L 134.2 -3.3 L 138.6 -4 L 138.6 -4 Q 138.7 -4.6 139 -6.4 L 139 -6.4 L 139 -6.4 Q 139.3 -8.2 139.3 -9.6 L 139.3 -9.6 L 139.3 -21.8 L 139.3 -21.8 Q 139.3 -30.7 132.6 -30.7 L 132.6 -30.7 L 132.6 -30.7 Q 129.2 -30.7 126.8 -27.3 L 126.8 -27.3 L 126.8 -27.3 Q 124.4 -23.9 124.2 -19.6 L 124.2 -19.6 L 124.2 -11.7 L 124.2 -11.7 Q 124.2 -8 124.4 -6.5 L 124.4 -6.5 L 124.7 -4 L 130 -3.6 L 129.6 0.3 L 126.6 0.1 L 126.6 0.1 Q 122.8 0 120.3 0 L 120.3 0 L 120.3 0 Q 117.8 0 115.7 0.1 L 115.7 0.1 L 113.9 0.3 L 113.5 -3.3 L 117.9 -4 L 117.9 -4 Q 117.9 -4.6 118.3 -6.4 L 118.3 -6.4 L 118.3 -6.4 Q 118.6 -8.2 118.6 -9.6 Z M 162 -24.3 L 157.9 -24.1 L 157.1 -33.5 L 157.1 -33.5 Q 163.4 -35.2 169.9 -35.2 L 169.9 -35.2 L 169.9 -35.2 Q 176.4 -35.2 178.9 -31.6 L 178.9 -31.6 L 178.9 -31.6 Q 181.4 -27.9 181.4 -20.4 L 181.4 -20.4 L 181.4 -9.6 L 181.4 -9.6 Q 181.4 -8 182.1 -4 L 182.1 -4 L 186.9 -3.6 L 186.5 0.3 L 184.2 0.1 L 184.2 0.1 Q 180.9 0 177.4 0 L 177.4 0 L 176.4 -5.5 L 176.4 -5.5 Q 175 -2.9 171.7 -1.1 L 171.7 -1.1 L 171.7 -1.1 Q 168.3 0.7 164.3 0.7 L 164.3 0.7 L 164.3 0.7 Q 160.2 0.7 157.7 -1.8 L 157.7 -1.8 L 157.7 -1.8 Q 155.1 -4.3 155.1 -8.2 L 155.1 -8.2 L 155.1 -8.2 Q 155.1 -12.2 157.1 -14.2 L 157.1 -14.2 L 157.1 -14.2 Q 159.2 -16.2 162.2 -17.1 L 162.2 -17.1 L 162.2 -17.1 Q 165.3 -17.9 175.7 -19.5 L 175.7 -19.5 L 175.7 -21.8 L 175.7 -21.8 Q 175.7 -31.4 169.1 -31.4 L 169.1 -31.4 L 169.1 -31.4 Q 165.3 -31.4 162.6 -30.1 L 162.6 -30.1 L 162.6 -30.1 Q 162 -27 162 -26.8 L 162 -26.8 L 162 -24.3 Z M 161.3 -9 L 161.3 -9 L 161.3 -9 Q 161.3 -3.8 166.9 -3.8 L 166.9 -3.8 L 166.9 -3.8 Q 169.9 -3.8 172.5 -6 L 172.5 -6 L 172.5 -6 Q 175.1 -8.3 175.7 -11.7 L 175.7 -11.7 L 175.7 -15.9 L 175.7 -15.9 Q 175.3 -15.8 171.7 -15.2 L 171.7 -15.2 L 171.7 -15.2 Q 168 -14.6 165.7 -14 L 165.7 -14 L 165.7 -14 Q 161.3 -12.9 161.3 -9 Z M 205.5 -9.9 L 205.5 -9.9 L 205.5 -9.9 Q 202.9 -9.9 200.7 -10.5 L 200.7 -10.5 L 200.7 -10.5 Q 198.9 -8.1 198.9 -7.5 L 198.9 -7.5 L 198.9 -7.5 Q 198.9 -6.9 199.4 -6.4 L 199.4 -6.4 L 199.4 -6.4 Q 200 -5.9 201.3 -5.6 L 201.3 -5.6 L 201.3 -5.6 Q 202.6 -5.3 203.7 -5.2 L 203.7 -5.2 L 203.7 -5.2 Q 204.9 -5 206.9 -4.8 L 206.9 -4.8 L 206.9 -4.8 Q 215.7 -3.9 218.4 -3 L 218.4 -3 L 218.4 -3 Q 221.5 -2 221.5 3.5 L 221.5 3.5 L 221.5 3.5 Q 221.5 9 216 12.7 L 216 12.7 L 216 12.7 Q 210.5 16.4 203.8 16.4 L 203.8 16.4 L 203.8 16.4 Q 189.9 16.4 189.9 6.3 L 189.9 6.3 L 189.9 6.3 Q 189.9 4.1 196.4 -0.7 L 196.4 -0.7 L 196.4 -0.7 Q 193.3 -2.4 193.3 -5.9 L 193.3 -5.9 L 193.3 -5.9 Q 193.3 -7.4 198.2 -11.6 L 198.2 -11.6 L 198.2 -11.6 Q 192 -14.8 192 -22.5 L 192 -22.5 L 192 -22.5 Q 192 -28.4 195.8 -31.8 L 195.8 -31.8 L 195.8 -31.8 Q 199.6 -35.2 205.5 -35.2 L 205.5 -35.2 L 205.5 -35.2 Q 209.4 -35.2 212.5 -33.7 L 212.5 -33.7 L 220.6 -35.4 L 221.2 -31.9 L 218.7 -31 L 218.7 -31 Q 218.2 -30.9 216.9 -29.9 L 216.9 -29.9 L 216.9 -29.9 Q 219 -26.9 219 -22.5 L 219 -22.5 L 219 -22.5 Q 219 -16.7 215.2 -13.3 L 215.2 -13.3 L 215.2 -13.3 Q 211.5 -9.9 205.5 -9.9 Z M 198.1 -22.5 L 198.1 -22.5 L 198.1 -22.5 Q 198.1 -13.4 205.5 -13.4 L 205.5 -13.4 L 205.5 -13.4 Q 212.9 -13.4 212.9 -22.5 L 212.9 -22.5 L 212.9 -22.5 Q 212.9 -31.6 205.5 -31.6 L 205.5 -31.6 L 205.5 -31.6 Q 198.1 -31.6 198.1 -22.5 Z M 215.6 5.2 L 215.6 5.2 Q 215.6 3.6 215.1 3 L 215.1 3 L 215.1 3 Q 214.5 2.4 212.8 2.1 L 212.8 2.1 L 212.8 2.1 Q 211.1 1.7 205.7 1.1 L 205.7 1.1 L 205.7 1.1 Q 200.3 0.5 199 0.1 L 199 0.1 L 199 0.1 Q 195.9 4.1 195.9 5 L 195.9 5 L 195.9 5 Q 195.9 9.2 198.4 10.8 L 198.4 10.8 L 198.4 10.8 Q 200.9 12.5 205.3 12.5 L 205.3 12.5 L 205.3 12.5 Q 209.7 12.5 212.6 10.6 L 212.6 10.6 L 212.6 10.6 Q 215.6 8.7 215.6 5.2 L 215.6 5.2 Z M 253.2 -6.7 L 255.1 -3.5 L 255.1 -3.5 Q 250.1 0.7 242.5 0.7 L 242.5 0.7 L 242.5 0.7 Q 235 0.7 230.8 -4.1 L 230.8 -4.1 L 230.8 -4.1 Q 226.6 -9 226.6 -17.2 L 226.6 -17.2 L 226.6 -17.2 Q 226.6 -25.3 230.5 -30.2 L 230.5 -30.2 L 230.5 -30.2 Q 234.4 -35.1 241.9 -35.1 L 241.9 -35.1 L 241.9 -35.1 Q 255.3 -35.1 255.3 -18.9 L 255.3 -18.9 L 254.2 -16.6 L 233.2 -16.6 L 233.2 -16.6 Q 233.4 -11.4 235.8 -7.6 L 235.8 -7.6 L 235.8 -7.6 Q 238.3 -3.9 242.7 -3.9 L 242.7 -3.9 L 242.7 -3.9 Q 248.4 -3.9 253.2 -6.7 L 253.2 -6.7 Z M 248.8 -21.3 L 248.8 -21.8 L 248.9 -22.7 L 248.9 -22.7 Q 248.9 -26.7 247.1 -29.1 L 247.1 -29.1 L 247.1 -29.1 Q 245.3 -31.5 241.6 -31.5 L 241.6 -31.5 L 241.6 -31.5 Q 234.4 -31.5 233.3 -20.2 L 233.3 -20.2 L 233.3 -20.2 Q 246.5 -21.3 248.8 -21.3 L 248.8 -21.3 Z M 271.3 0.7 L 271.3 0.7 L 271.3 0.7 Q 264.8 0.7 259.8 -2 L 259.8 -2 L 260.5 -11.6 L 264.6 -11.3 L 264.6 -8.7 L 264.6 -8.7 Q 264.6 -7.8 265.6 -4.5 L 265.6 -4.5 L 265.6 -4.5 Q 267.5 -2.9 271.5 -2.9 L 271.5 -2.9 L 271.5 -2.9 Q 277.9 -2.9 277.9 -8.2 L 277.9 -8.2 L 277.9 -8.2 Q 277.9 -10.2 276 -11.7 L 276 -11.7 L 276 -11.7 Q 274.2 -13.2 271.6 -14.4 L 271.6 -14.4 L 271.6 -14.4 Q 269 -15.5 266.4 -16.8 L 266.4 -16.8 L 266.4 -16.8 Q 263.7 -18.1 261.9 -20.4 L 261.9 -20.4 L 261.9 -20.4 Q 260 -22.8 260 -25.9 L 260 -25.9 L 260 -25.9 Q 260 -30.2 263.2 -32.7 L 263.2 -32.7 L 263.2 -32.7 Q 266.4 -35.2 271.6 -35.2 L 271.6 -35.2 L 271.6 -35.2 Q 276.7 -35.2 281.9 -34 L 281.9 -34 L 281 -24 L 277 -24.2 L 277 -26.7 L 277 -26.7 Q 277 -27.5 276 -30.7 L 276 -30.7 L 276 -30.7 Q 274 -31.6 271.4 -31.6 L 271.4 -31.6 L 271.4 -31.6 Q 268.7 -31.6 267.2 -30.4 L 267.2 -30.4 L 267.2 -30.4 Q 265.6 -29.1 265.6 -27.1 L 265.6 -27.1 L 265.6 -27.1 Q 265.6 -25.1 267.5 -23.6 L 267.5 -23.6 L 267.5 -23.6 Q 269.3 -22.1 272 -20.9 L 272 -20.9 L 272 -20.9 Q 274.6 -19.7 277.3 -18.5 L 277.3 -18.5 L 277.3 -18.5 Q 279.9 -17.2 281.8 -14.9 L 281.8 -14.9 L 281.8 -14.9 Q 283.6 -12.6 283.6 -9.5 L 283.6 -9.5 L 283.6 -9.5 Q 283.6 0.7 271.3 0.7 Z M 329.1 -23.5 L 329.5 -23.1 L 329.5 -23.1 Q 328.8 -15.8 328.8 -11.6 L 328.8 -11.6 L 328.8 -1.3 L 328.8 -1.3 Q 318.8 1 312.8 1 L 312.8 1 L 312.8 1 Q 301.5 1 295.5 -5.9 L 295.5 -5.9 L 295.5 -5.9 Q 289.4 -12.8 289.4 -24.6 L 289.4 -24.6 L 289.4 -24.6 Q 289.4 -36.4 295.5 -43.4 L 295.5 -43.4 L 295.5 -43.4 Q 301.5 -50.4 312.8 -50.4 L 312.8 -50.4 L 312.8 -50.4 Q 318.5 -50.4 324.1 -49 L 324.1 -49 L 324.1 -49 Q 327.6 -48.2 328.2 -48 L 328.2 -48 L 327.4 -37.7 L 323.4 -38.1 L 323.4 -41.2 L 323.4 -41.2 Q 323.4 -42.3 322.5 -44.7 L 322.5 -44.7 L 322.5 -44.7 Q 316.9 -46.3 312.7 -46.3 L 312.7 -46.3 L 312.7 -46.3 Q 304.8 -46.3 300.7 -40.3 L 300.7 -40.3 L 300.7 -40.3 Q 296.6 -34.3 296.6 -24.7 L 296.6 -24.7 L 296.6 -24.7 Q 296.6 -15.1 300.7 -9.1 L 300.7 -9.1 L 300.7 -9.1 Q 304.8 -3 312.7 -3 L 312.7 -3 L 312.7 -3 Q 317.2 -3 322.4 -4.4 L 322.4 -4.4 L 322.4 -4.4 Q 323.2 -7.6 323.2 -9 L 323.2 -9 L 323.2 -13.7 L 323.2 -13.7 Q 323.2 -14.8 322.9 -16.6 L 322.9 -16.6 L 322.9 -16.6 Q 322.6 -18.3 322.5 -19.3 L 322.5 -19.3 L 316.5 -19.9 L 316.9 -23.9 L 320.3 -23.6 L 320.3 -23.6 Q 322.8 -23.3 325.1 -23.3 L 325.1 -23.3 L 325.1 -23.3 Q 327.4 -23.3 328 -23.4 L 328 -23.4 L 329.1 -23.5 Z M 341.7 -24.3 L 337.6 -24.1 L 336.8 -33.5 L 336.8 -33.5 Q 343.1 -35.2 349.6 -35.2 L 349.6 -35.2 L 349.6 -35.2 Q 356.1 -35.2 358.6 -31.6 L 358.6 -31.6 L 358.6 -31.6 Q 361 -27.9 361 -20.4 L 361 -20.4 L 361 -9.6 L 361 -9.6 Q 361 -8 361.7 -4 L 361.7 -4 L 366.6 -3.6 L 366.2 0.3 L 363.8 0.1 L 363.8 0.1 Q 360.6 0 357.1 0 L 357.1 0 L 356.1 -5.5 L 356.1 -5.5 Q 354.7 -2.9 351.4 -1.1 L 351.4 -1.1 L 351.4 -1.1 Q 348 0.7 344 0.7 L 344 0.7 L 344 0.7 Q 339.9 0.7 337.4 -1.8 L 337.4 -1.8 L 337.4 -1.8 Q 334.8 -4.3 334.8 -8.2 L 334.8 -8.2 L 334.8 -8.2 Q 334.8 -12.2 336.8 -14.2 L 336.8 -14.2 L 336.8 -14.2 Q 338.9 -16.2 341.9 -17.1 L 341.9 -17.1 L 341.9 -17.1 Q 345 -17.9 355.4 -19.5 L 355.4 -19.5 L 355.4 -21.8 L 355.4 -21.8 Q 355.4 -31.4 348.8 -31.4 L 348.8 -31.4 L 348.8 -31.4 Q 344.9 -31.4 342.3 -30.1 L 342.3 -30.1 L 342.3 -30.1 Q 341.7 -27 341.7 -26.8 L 341.7 -26.8 L 341.7 -24.3 Z M 341 -9 L 341 -9 L 341 -9 Q 341 -3.8 346.6 -3.8 L 346.6 -3.8 L 346.6 -3.8 Q 349.6 -3.8 352.2 -6 L 352.2 -6 L 352.2 -6 Q 354.8 -8.3 355.4 -11.7 L 355.4 -11.7 L 355.4 -15.9 L 355.4 -15.9 Q 355 -15.8 351.4 -15.2 L 351.4 -15.2 L 351.4 -15.2 Q 347.7 -14.6 345.4 -14 L 345.4 -14 L 345.4 -14 Q 341 -12.9 341 -9 Z M 369.4 -49.8 L 369.7 -53.6 L 369.7 -53.6 Q 375.2 -52.9 377 -52.9 L 377 -52.9 L 377 -52.9 Q 378.9 -52.9 380.2 -53.1 L 380.2 -53.1 L 381.3 -53.2 L 381.7 -52.8 L 381.4 -48.4 L 381.4 -48.4 Q 381.2 -45.9 381.2 -41.3 L 381.2 -41.3 L 381.2 -11.7 L 381.2 -11.7 Q 381.2 -8 381.4 -6.5 L 381.4 -6.5 L 381.7 -4 L 387.2 -3.6 L 386.7 0.3 L 383.4 0.1 L 383.4 0.1 Q 379.3 0 376.9 0 L 376.9 0 L 376.9 0 Q 374.6 0 371.9 0.1 L 371.9 0.1 L 369.7 0.3 L 369.3 -3.2 L 374.7 -4 L 374.7 -4 Q 374.8 -4.6 375.1 -6.4 L 375.1 -6.4 L 375.1 -6.4 Q 375.4 -8.2 375.4 -9.6 L 375.4 -9.6 L 375.4 -43.4 L 375.4 -43.4 Q 375.4 -44.5 375.1 -46.2 L 375.1 -46.2 L 375.1 -46.2 Q 374.8 -48 374.7 -49 L 374.7 -49 L 369.4 -49.8 Z M 390 -49.8 L 390.4 -53.6 L 390.4 -53.6 Q 395.8 -52.9 397.7 -52.9 L 397.7 -52.9 L 397.7 -52.9 Q 399.5 -52.9 400.8 -53.1 L 400.8 -53.1 L 401.9 -53.2 L 402.3 -52.8 L 402.1 -48.4 L 402.1 -48.4 Q 401.9 -45.9 401.9 -41.3 L 401.9 -41.3 L 401.9 -11.7 L 401.9 -11.7 Q 401.9 -8 402.1 -6.5 L 402.1 -6.5 L 402.3 -4 L 407.8 -3.6 L 407.4 0.3 L 404 0.1 L 404 0.1 Q 400 0 397.6 0 L 397.6 0 L 397.6 0 Q 395.2 0 392.5 0.1 L 392.5 0.1 L 390.3 0.3 L 390 -3.2 L 395.3 -4 L 395.3 -4 Q 395.4 -4.6 395.7 -6.4 L 395.7 -6.4 L 395.7 -6.4 Q 396 -8.2 396 -9.6 L 396 -9.6 L 396 -43.4 L 396 -43.4 Q 396 -44.5 395.7 -46.2 L 395.7 -46.2 L 395.7 -46.2 Q 395.4 -48 395.3 -49 L 395.3 -49 L 390 -49.8 Z M 438.5 -6.7 L 440.5 -3.5 L 440.5 -3.5 Q 435.5 0.7 427.9 0.7 L 427.9 0.7 L 427.9 0.7 Q 420.3 0.7 416.2 -4.1 L 416.2 -4.1 L 416.2 -4.1 Q 412 -9 412 -17.2 L 412 -17.2 L 412 -17.2 Q 412 -25.3 415.9 -30.2 L 415.9 -30.2 L 415.9 -30.2 Q 419.8 -35.1 427.3 -35.1 L 427.3 -35.1 L 427.3 -35.1 Q 440.7 -35.1 440.7 -18.9 L 440.7 -18.9 L 439.5 -16.6 L 418.6 -16.6 L 418.6 -16.6 Q 418.7 -11.4 421.2 -7.6 L 421.2 -7.6 L 421.2 -7.6 Q 423.7 -3.9 428.1 -3.9 L 428.1 -3.9 L 428.1 -3.9 Q 433.8 -3.9 438.5 -6.7 L 438.5 -6.7 Z M 434.2 -21.3 L 434.2 -21.8 L 434.3 -22.7 L 434.3 -22.7 Q 434.3 -26.7 432.5 -29.1 L 432.5 -29.1 L 432.5 -29.1 Q 430.7 -31.5 427 -31.5 L 427 -31.5 L 427 -31.5 Q 419.8 -31.5 418.7 -20.2 L 418.7 -20.2 L 418.7 -20.2 Q 431.9 -21.3 434.2 -21.3 L 434.2 -21.3 Z M 456 -19.9 L 456 -19.9 L 456 -11.7 L 456 -11.7 Q 456 -8 456.2 -6.5 L 456.2 -6.5 L 456.5 -4 L 463.4 -3.4 L 463 0.3 L 459.1 0.1 L 459.1 0.1 Q 454.6 0 452 0 L 452 0 L 452 0 Q 449.4 0 447.1 0.1 L 447.1 0.1 L 445.3 0.3 L 445 -3.3 L 449.6 -4 L 449.6 -4 Q 449.7 -4.6 450 -6.4 L 450 -6.4 L 450 -6.4 Q 450.3 -8.2 450.3 -9.6 L 450.3 -9.6 L 450.3 -25 L 450.3 -25 Q 450.3 -25.4 449.9 -27.4 L 449.9 -27.4 L 449.9 -27.4 Q 449.6 -29.3 449.3 -31 L 449.3 -31 L 444.3 -31.9 L 444.6 -35.4 L 446.8 -35.2 L 446.8 -35.2 Q 448.1 -35 450.3 -35 L 450.3 -35 L 450.3 -35 Q 452.5 -35 453 -35.1 L 453 -35.1 L 453.9 -35.2 L 454.3 -34.8 L 455.3 -28.6 L 455.3 -28.6 Q 459.3 -35.2 466.6 -35.2 L 466.6 -35.2 L 466.6 -35.2 Q 468.6 -35.2 470 -34.9 L 470 -34.9 L 471.4 -34.5 L 470.7 -23 L 466.7 -23.2 L 466.6 -26.9 L 466.6 -26.9 Q 466.6 -27.4 465.6 -30.4 L 465.6 -30.4 L 465.6 -30.4 Q 460.7 -30.4 458.4 -27.8 L 458.4 -27.8 L 458.4 -27.8 Q 456.2 -25.1 456 -19.9 Z M 495.2 -31.4 L 495.6 -35.2 L 495.6 -35.2 Q 500.5 -34.6 503.1 -34.6 L 503.1 -34.6 L 503.1 -34.6 Q 505.7 -34.6 506.8 -34.8 L 506.8 -34.8 L 508.8 -35 L 509.1 -31.2 L 506.4 -30.9 L 506.4 -30.9 Q 502.4 -22.7 502.2 -22.3 L 502.2 -22.3 L 493.4 0 L 487.5 16.4 L 476.1 15.7 L 476.7 11.6 L 476.7 11.6 Q 477 11.7 477.8 11.7 L 477.8 11.7 L 479.5 11.7 L 479.5 11.7 Q 480.6 11.7 484.1 10.8 L 484.1 10.8 L 484.1 10.8 Q 486.3 7.5 486.8 6.2 L 486.8 6.2 L 488.8 0.6 L 478.4 -24.1 L 478.4 -24.1 Q 478.2 -25 474.9 -30.9 L 474.9 -30.9 L 472.1 -31.4 L 472.4 -35.2 L 472.4 -35.2 Q 477.3 -34.6 480 -34.6 L 480 -34.6 L 480 -34.6 Q 482.7 -34.6 484 -34.8 L 484 -34.8 L 486.5 -35.1 L 486.8 -31.2 L 482.5 -30.7 L 482.5 -30.7 Q 483.6 -26.7 484.4 -24.4 L 484.4 -24.4 L 491.5 -6.7 L 498 -24.6 L 498 -24.6 Q 499 -27.7 499.8 -30.7 L 499.8 -30.7 L 495.2 -31.4 Z" fill="url(#editing-outline-gradient)"></path></g></g><style>text {
  font-size: 64px;
  font-family: Arial Black;
  dominant-baseline: central;
  text-anchor: middle;
}</style></svg>